# xmcd
#
# Track frame offsets: 
#        150
#        17524
#        27590
#        39165
#        53235
#        60543
#        69517
#        74735
#        80754
#        103530
#        112788
#        125551
#        141436
#        164227
#        180584
#        200215
#        215719
#        244492
#
# Disc length: 3500 seconds
#
# Revision: 2
# Processed by: cddbd v1.5.1PL0 Copyright (c) Steve Scherf et al.
# Submitted via: ExactAudioCopy v0.95a4
#
DISCID=190daa12
DTITLE=’ντζελα Δημητρίου  - Live 2003 - Κυρία με γνώρισες, Κυρία θα με
DTITLE=ίνω
DYEAR=2003
DGENRE=Folk
TTITLE0=Όπου με πάει η καρδιά
TTITLE1=Τι να την κάνω την αγάπη σου
TTITLE2=Κάνε στην άκρη
TTITLE3=Παρενέργειες
TTITLE4=Στου φεγγαριού το χρώμα
TTITLE5=Έχτιζα παλάτια
TTITLE6=Εσυ τι λες
TTITLE7=Ήθελα να ΄ξερα δεν ντρέπεσαι
TTITLE8=Δυό φορές μου φωνάζουν-είναι κρύα τα σεντόνια-Σε παρακαλώ μην 
TTITLE8=πιστευεις σε λόγια
TTITLE9=Δεν είσαι τίποτα έχω μια καρδιά
TTITLE10=Φωτιά στα Σαββατόβραδα
TTITLE11=Ουρανέ
TTITLE12=Οι χωρισμένοι δεν γιορτάζουνε ποτέ-Δεν πειράζω κανέναν-Στάσου
TTITLE12=που πας
TTITLE13=Κυρία θα μείνω
TTITLE14=Θέλω να τα σπάω όλα
TTITLE15=Αμαρτολή - Σ΄αγαπάω κοίτα
TTITLE16=Ερωτα μου αγιάτρευτε - Φίλε - Πρώτη φορά - Το ’γαλμα - Δύο πό
TTITLE16=ρτες έχει η ζωή - Συννεφιασμένη Κυριακή
TTITLE17=Ποιά Θυσία
EXTD=
EXTT0=
EXTT1=
EXTT2=
EXTT3=
EXTT4=
EXTT5=
EXTT6=
EXTT7=
EXTT8=
EXTT9=
EXTT10=
EXTT11=
EXTT12=
EXTT13=
EXTT14=
EXTT15=
EXTT16=
EXTT17=
PLAYORDER=
